Coordinates
version=1
nRows=24
nColumns=24
inDegrees=yes

Units are S.I. units (second, meters, Newtons, ...)
Angles are in degrees.

endheader
time	pelvis_tilt	pelvis_list	pelvis_rotation	pelvis_tx	pelvis_ty	pelvis_tz	hip_flexion_r	hip_adduction_r	hip_rotation_r	knee_angle_r	ankle_angle_r	subtalar_angle_r	mtp_angle_r	hip_flexion_l	hip_adduction_l	hip_rotation_l	knee_angle_l	ankle_angle_l	subtalar_angle_l	mtp_angle_l	lumbar_extension	lumbar_bending	lumbar_rotation
      3.95000000	     -6.34920257	      2.84646216	    -21.16295178	     -0.10899949	      0.61456355	     -0.04247606	    -23.89906665	     -5.41539979	      1.50991233	     -0.29574030	     20.48261340	     -3.44997999	      0.00000000	     39.11772437	     -5.82351787	      1.81089205	    -15.86675817	    -12.83344863	    -21.67337960	      0.00000000	    -11.21813823	     -8.27013669	     24.30606952
      3.96000000	     -6.16006910	      4.37327704	    -20.78186499	     -0.09152699	      0.61374046	     -0.04467952	    -23.75686532	     -7.26809367	     -0.33774642	     -2.60372865	     18.07513364	     -3.73786610	      0.00000000	     40.54225326	     -3.30102719	      2.02494023	    -20.44135209	    -12.08190225	    -23.09320968	      0.00000000	    -10.66519917	     -9.61893539	     24.52332675
      3.97000000	     -5.83362404	      5.72848148	    -20.44700627	     -0.07422308	      0.61375246	     -0.04682471	    -23.51056341	     -9.02496179	     -1.63865528	     -5.38316066	     15.09010758	     -4.55922013	      0.00000000	     41.70727897	     -0.93953348	      1.97812292	    -24.95520854	    -10.56548491	    -24.34919590	      0.00000000	    -10.41685901	    -10.89071373	     24.77938363
      3.98000000	     -5.36698672	      6.77907717	    -20.30554568	     -0.05723783	      0.61468563	     -0.04854702	    -23.13615909	    -10.51222390	     -1.66725702	     -8.58635939	     10.57301338	     -7.24791343	      0.00000000	     42.37145936	      0.95332667	      1.40730642	    -29.09179503	     -7.58875604	    -23.94208411	      0.00000000	    -10.49094914	    -12.02229888	     25.44711616
      3.99000000	     -4.94433020	      7.64827289	    -20.26175512	     -0.04053028	      0.61633740	     -0.04993742	    -22.24323304	    -11.72228989	     -0.97246518	    -12.49060628	      5.22885495	    -10.74411791	      0.00000000	     42.49589562	      2.53189335	      0.66179935	    -32.30389649	     -4.35599670	    -23.19611407	      0.00000000	    -10.62284434	    -13.03002210	     26.16666416
      4.00000000	     -4.60451323	      8.37990646	    -20.25688082	     -0.02420626	      0.61866473	     -0.05101732	    -20.70886074	    -12.61112355	      0.26449346	    -17.16814241	     -0.71550605	    -14.83749368	      0.00000000	     42.02575767	      3.87468546	     -0.10813239	    -34.33552547	     -1.34473585	    -22.42002968	      0.00000000	    -10.77099095	    -13.94544120	     26.83328283
      4.01000000	     -4.43464010	      9.02869351	    -20.18825970	     -0.00832699	      0.62150133	     -0.05188362	    -18.43140226	    -13.15036428	      1.71563311	    -22.58710702	     -6.59946921	    -18.88341720	      0.00000000	     41.10081959	      5.06460124	     -0.81423996	    -35.20736327	      1.25091356	    -21.68344690	      0.00000000	    -10.82836849	    -14.75821433	     27.24257385
      4.02000000	     -4.45155047	      9.62326262	    -19.89565455	      0.00709359	      0.62467208	     -0.05270564	    -15.48775389	    -13.35439892	      2.89491345	    -28.56776517	    -11.70222505	    -22.32685504	      0.00000000	     39.87826925	      6.20366409	     -1.38813016	    -35.13496654	      3.40632462	    -20.81013104	      0.00000000	    -10.78986570	    -15.43432924	     27.21187959
      4.03000000	     -4.58142273	     10.24259743	    -19.35320543	      0.02208538	      0.62807143	     -0.05356695	    -12.09660594	    -13.37406772	      3.69466681	    -34.79115055	    -15.35019920	    -24.86966377	      0.00000000	     38.42217422	      7.40783288	     -1.81115890	    -34.32732265	      5.19764946	    -19.82463354	      0.00000000	    -10.69817074	    -16.05636882	     26.65370385
      4.04000000	     -4.78132127	     10.82924584	    -18.43250737	      0.03673882	      0.63164130	     -0.05460684	     -8.56725511	    -13.21657825	      3.97981070	    -40.82640414	    -17.46786715	    -26.62732826	      0.00000000	     36.80701690	      8.70351529	     -1.97995581	    -33.08356622	      6.75713894	    -18.47473369	      0.00000000	    -10.64516317	    -16.53776058	     25.40043535
      4.05000000	     -5.02985084	     11.36890793	    -17.26419419	      0.05113417	      0.63538082	     -0.05580805	     -5.02048669	    -12.97945391	      3.91817207	    -46.38640866	    -18.05488730	    -27.60036136	      0.00000000	     35.06074341	     10.02640715	     -1.89536543	    -31.54942330	      8.05792410	    -16.98068181	      0.00000000	    -10.58254752	    -16.88552930	     23.79076924
      4.06000000	     -5.30025341	     11.70000031	    -15.78929032	      0.06536272	      0.63934210	     -0.05720945	     -1.66858128	    -12.54141601	      3.49818761	    -51.21174151	    -17.52160993	    -28.11593655	      0.00000000	     33.18198850	     11.23279570	     -1.53467027	    -29.93828452	      9.22289140	    -15.11615400	      0.00000000	    -10.61202001	    -16.92958518	     21.73404751
      4.07000000	     -5.54094908	     11.74698166	    -14.10251325	      0.07951663	      0.64357971	     -0.05878776	      1.40206915	    -11.88990693	      2.80871111	    -55.20732900	    -16.12958377	    -28.28904549	      0.00000000	     31.06983132	     12.24684128	     -0.74279534	    -28.23428001	     10.28345891	    -13.15925333	      0.00000000	    -10.75397555	    -16.62358741	     19.51693013
      4.08000000	     -5.79630851	     11.53367319	    -12.29879179	      0.09361626	      0.64800598	     -0.06049275	      4.28764271	    -11.06453257	      1.95553779	    -58.38510562	    -14.46110353	    -28.40182456	      0.00000000	     28.76058458	     13.01235162	      0.47088830	    -26.36685533	     10.99476149	    -11.40030106	      0.00000000	    -10.90268498	    -16.01034927	     17.36736567
      4.09000000	     -6.04369315	     11.13471299	    -10.49886066	      0.10766414	      0.65244738	     -0.06222639	      7.04848460	    -10.15846357	      1.05867587	    -60.85782797	    -12.42860888	    -28.40274415	      0.00000000	     26.31052845	     13.50238478	      1.85450859	    -24.38245736	     11.63009523	     -9.80842189	      0.00000000	    -11.03176807	    -15.20990114	     15.36298394
      4.10000000	     -6.32297999	     10.49360785	     -8.66950826	      0.12166803	      0.65680823	     -0.06401933	      9.70378947	     -9.09839862	      0.11518318	    -62.63757241	    -10.70704010	    -28.61266674	      0.00000000	     23.73200911	     13.68563414	      3.67089379	    -22.21871459	     11.93140451	     -8.61821287	      0.00000000	    -11.10381315	    -14.15255809	     13.65390879
      4.11000000	     -6.64606581	      9.65760297	     -6.84356741	      0.13561158	      0.66091197	     -0.06580824	     12.31040303	     -7.93082594	     -0.82081719	    -63.81291072	     -9.35583400	    -29.04065052	      0.00000000	     21.12977927	     13.54553286	      5.73337886	    -19.95238496	     12.02710647	     -7.68219183	      0.00000000	    -11.07867807	    -12.90132312	     12.25309121
      4.12000000	     -7.00186082	      8.74048143	     -5.04621997	      0.14944279	      0.66456954	     -0.06754470	     14.91750104	     -6.77555547	     -1.67929544	    -64.50193890	     -8.11845885	    -29.70136149	      0.00000000	     18.61740701	     13.17210461	      7.86449469	    -17.71575807	     12.17723444	     -6.88270487	      0.00000000	    -10.96467179	    -11.60346664	     11.09010496
      4.13000000	     -7.16928157	      7.73598232	     -3.31488776	      0.16321280	      0.66797270	     -0.06924399	     17.27945820	     -5.67789928	     -2.48063765	    -64.71165566	     -6.67985178	    -29.95869851	      0.00000000	     15.87255490	     12.61307589	     10.41522686	    -15.29641939	     11.64872832	     -7.14497694	      0.00000000	    -11.01763734	    -10.25287211	     10.25970060
      4.14000000	     -7.52879129	      6.74792031	     -1.61484720	      0.17669232	      0.67057243	     -0.07078941	     19.85850240	     -4.64760119	     -3.08091586	    -64.55479916	     -5.56056698	    -30.78133011	      0.00000000	     13.66462557	     11.86136213	     12.37749172	    -13.32059982	     11.86137357	     -6.50031018	      0.00000000	    -10.80688911	     -8.97034309	      9.56024247
      4.15000000	     -7.57423545	      5.84692866	      0.03565287	      0.19002353	      0.67290321	     -0.07229761	     22.06489328	     -3.86076319	     -3.56692465	    -63.99764696	     -4.42506269	    -31.43470209	      0.00000000	     11.13320158	     11.11636793	     14.81477235	    -11.18523271	     11.27885712	     -7.09733106	      0.00000000	    -10.96193257	     -7.81930010	      8.95601942
      4.16000000	     -7.72604710	      5.01993323	      1.63941171	      0.20301298	      0.67448014	     -0.07366161	     24.37402486	     -3.22053566	     -3.82880504	    -63.10979741	     -3.47824923	    -32.36133606	      0.00000000	      9.07732293	     10.30656589	     16.56566040	     -9.53824994	     11.31627818	     -6.82989029	      0.00000000	    -10.99929455	     -6.78360964	      8.36695032
      4.17000000	     -7.74176412	      4.32238870	      3.19716901	      0.21574184	      0.67555054	     -0.07493158	     26.47970859	     -2.80489802	     -3.88509771	    -61.87374843	     -2.72315725	    -33.40743929	      0.00000000	      7.08832641	      9.54244708	     18.10525606	     -8.14329253	     11.53179627	     -6.45419041	      0.00000000	    -11.22895596	     -5.90539417	      7.72509041
      4.18000000	     -7.79007964	      3.81391640	      4.74757737	      0.22817592	      0.67594215	     -0.07615873	     28.55985206	     -2.68964091	     -3.72869184	    -60.35494663	     -2.02746218	    -34.39105340	      0.00000000	      5.35933252	      8.92599056	     19.45063097	     -7.07979166	     12.05554461	     -5.88520016	      0.00000000	    -11.47470804	     -5.24022544	      6.89618138
